<?xml version="1.0" encoding="UTF-8"?>
<svg id="_图层_1" data-name="图层_1" xmlns="http://www.w3.org/2000/svg" version="1.1" viewBox="0 0 1654.24 203.09">
  <!-- Generator: Adobe Illustrator 30.1.0, SVG Export Plug-In . SVG Version: 2.1.1 Build 136)  -->
  <g>
    <path d="M373.71,90.5c-6.59.59-12.25,5.94-14.79,13.11l29.58-2.66c-2.54-6.71-8.2-11.04-14.79-10.45Z"/>
    <path d="M270.76,64.01l-11.47,1.03v64.25l11.47-1.03c17.74-1.6,32.12-17.27,32.12-35.01s-14.38-30.83-32.12-29.23Z"/>
    <path d="M561.25,74.67c-6.65.6-12.05,6.29-12.05,12.72v9.31c0,6.43,5.39,11.15,12.05,10.55,6.65-.6,12.04-6.29,12.04-12.72v-9.31c0-6.43-5.39-11.15-12.04-10.55Z"/>
    <path d="M82.21,80.97l-26.22,2.28v28.32l26.22-2.28c3.9-.35,7.46-2.25,10.01-5.05,2.57-2.78,4.15-6.48,4.15-10.38,0-7.8-6.33-13.59-14.16-12.88Z"/>
    <path d="M363.9,30.35V5.26L0,37.88v165.21l335.9-30.34v25.46l363.9-32.62V0l-335.9,30.35ZM123.9,166.71l-32.12,2.89-15.81-34.51-19.98,1.72v35.93l-27.99,2.37V60.61l56.51-5.08c10.88-.98,20.72,2.54,27.86,9.04,7.13,6.49,11.54,15.94,11.54,26.82,0,14.07-7.37,27.07-18.47,35.03l18.47,40.31ZM222.57,68.34l-61.96,5.57v19.5l55.07-4.95v25.24l-55.07,4.95v19.5l61.96-5.57v25.24l-89.49,8.05V51.15l89.49-8.05v25.24ZM273.05,153.29l-41.3,3.72V42.28l41.3-3.72c31.68-2.85,57.36,20.52,57.36,52.2s-25.68,59.67-57.36,62.53ZM410.68,115.47l-51.76,4.66c2.54,6.71,8.2,11.04,14.79,10.45,3.42-.31,6.59-1.89,9.19-4.34l25.38-2.28c-5.81,15.11-19.1,26.5-34.58,27.89-20.84,1.87-37.72-15.09-37.72-37.91s16.88-42.82,37.72-44.7c20.84-1.87,37.72,15.11,37.72,37.91,0,2.83-.26,5.62-.75,8.33ZM449.68,96.83v.02c18.74-1.52,33.85,5.59,33.85,21.03,0,14.62-17.71,25.69-36.71,27.4-16.92,1.52-31.99-8-33.84-20.82l22.99-2.07c1.5,2.39,5.77,3.84,10.85,3.38,6.33-.57,13.31-3.2,13.31-7.51s-4.68-5.89-11.01-5.32h0c-18.74,1.5-33.85-5.61-33.85-21.05,0-14.62,15.41-25.48,34.42-27.19,16.92-1.52,31.99,8,33.85,20.82l-22.99,2.07c-1.5-2.39-5.77-3.84-10.86-3.38-6.33.57-11.01,2.99-11.01,7.3s4.68,5.89,11.01,5.32ZM515.81,137.92l-24.41,2.2v-73.61l24.41-2.19v73.61ZM503.55,56.67c-7.18.65-13.01-4.65-13.01-11.84s5.83-13.53,13.01-14.18c7.18-.65,13.01,4.65,13.01,11.84s-5.83,13.53-13.01,14.18ZM597.39,120.31c0,22.5-18.87,42.44-42.16,44.53-12.06,1.08-22.91-2.86-30.59-10.01l16.95-15.74c3.31,3.39,8.19,5.29,13.64,4.8,9.98-.9,18.07-9.44,18.07-19.09v-3.53c-5.04,4.11-11.28,6.87-18.07,7.48-16.63,1.5-30.12-10.32-30.12-26.39v-16.3c0-16.07,13.48-30.31,30.12-31.81,6.79-.61,13.03,1.02,18.07,4.23v-4.34l24.09-2.17v68.31ZM674.56,123.63l-22.95,2.06v-47.04c0-6.34-5.14-11.01-11.47-10.44-6.33.57-11.47,6.17-11.47,12.5v47.04l-9.18.83-13.77,1.24V52.16l22.95-2.07v6.2c5.12-5.22,11.96-8.77,19.5-9.45,15.84-1.42,26.39,10.47,26.39,26.31v50.48Z"/>
  </g>
  <g>
    <path d="M1618.77,79.92h-6v2.9c-2.59-2.19-5.75-3.38-8.93-3.38-8.22,0-14.43,7.2-14.43,16.74s6.2,16.74,14.43,16.74c3.41,0,6.6-1.51,9.14-3.88.05,2.99-.16,5.92-1.41,8.65-1.36,2.99-4.05,5.38-7.21,5.38h-.22c-4.5.08-7.02-2.72-8.39-5.88l-5.35,2.55c.33.72.71,1.39,1.09,2.05,2.45,4.16,6.57,6.82,12.64,6.82h.22c4.75,0,9.23-2.66,11.68-6.82,3.44-5.82,2.73-12.75,2.73-19.51v-22.37ZM1612.77,96.88c0,5.9-4.77,10.31-8.93,10.31-4.98,0-8.73-4.73-8.73-11s3.75-11,8.73-11c4.42,0,8.93,3.43,8.93,11.1v.59Z"/>
    <path d="M919.01,62.59h.33c6.37,0,12.8-1.91,17.1-6.59,2.12-2.34,3.59-5.06,4.52-8.01l-5.77-1.85c-.71,2.12-1.74,4.09-3.21,5.83-3.1,3.59-7.84,5.17-12.63,5.17h-.33c-4.79,0-9.53-1.58-12.63-5.17-3.43-4.03-4.47-9.42-4.47-14.7s1.03-10.67,4.47-14.7c3.1-3.6,7.84-5.17,12.63-5.17h.33c4.79,0,9.53,1.58,12.63,5.17,1.47,1.74,2.51,3.7,3.21,5.83l5.77-1.85c-.93-2.94-2.4-5.66-4.52-8.01-4.3-4.68-10.73-6.59-17.1-6.59h-.33c-6.37,0-12.8,1.91-17.1,6.59-4.57,5.01-5.99,11.93-5.99,18.73s1.41,13.72,5.99,18.73c4.3,4.68,10.73,6.59,17.1,6.59Z"/>
    <path d="M962.73,62.59h.22c4.74,0,9.2-2.4,11.76-6.37,3.43-5.34,4.14-11.82,4.14-18.19s-.71-12.91-4.14-18.24c-2.56-3.98-7.02-6.37-11.76-6.37h-.22c-4.74,0-9.2,2.4-11.76,6.37-3.43,5.34-4.14,11.87-4.14,18.24s.71,12.85,4.14,18.19c2.56,3.98,7.03,6.37,11.76,6.37ZM955.38,23.82c1.47-2.83,4.19-4.96,7.35-4.96h.22c3.16,0,5.88,2.12,7.35,4.96,2.23,4.36,2.56,9.37,2.56,14.21s-.33,9.8-2.56,14.16c-1.47,2.83-4.19,4.95-7.35,4.95h-.22c-3.16,0-5.88-2.12-7.35-4.95-2.23-4.36-2.56-9.31-2.56-14.16s.33-9.86,2.56-14.21Z"/>
    <path d="M992.86,44.29h8.77c4.47,0,8.99-1.03,12.2-4.08,3.11-3,4.3-7.41,4.3-11.71s-1.2-8.66-4.3-11.65c-3.21-3.05-7.73-4.09-12.2-4.09h-14.76v49.01h5.99v-17.48ZM992.86,18.21h8.77c2.83,0,5.77.65,7.79,2.67,2.01,1.96,2.72,4.79,2.72,7.63s-.71,5.72-2.72,7.68c-2.01,2.01-4.96,2.67-7.79,2.67h-8.77v-20.64Z"/>
    <polygon points="1035.98 61.77 1041.97 61.77 1041.97 42.88 1058.42 12.76 1051.94 12.76 1039.14 36.23 1026.34 12.76 1019.54 12.76 1035.98 42.88 1035.98 61.77"/>
    <path d="M1066.98,34.44c0-3.92.22-7.95,1.85-11.55.98-2.23,2.83-4.03,5.23-4.03h.16c1.14,0,2.12.44,3,1.09l3-4.79c-1.8-1.14-3.81-1.74-5.99-1.74h-.16c-2.61,0-5.12.98-7.08,2.67v-1.85h-5.99v47.54h5.99v-27.34Z"/>
    <rect x="1085" y="12.76" width="5.99" height="49.01"/>
    <path d="M1122.8,62.59h.33c6.26,0,12.64-1.42,17.1-5.72v4.9h5.99v-27.23h-23.25v5.45h17.26v1.25c0,4.36-1.25,8.77-4.46,11.76-3.38,3.1-8.01,4.14-12.64,4.14h-.33c-4.79,0-9.53-1.58-12.64-5.17-3.43-4.03-4.46-9.42-4.46-14.7s1.03-10.67,4.46-14.7c3.11-3.6,7.84-5.17,12.64-5.17h.33c4.79,0,9.53,1.58,12.64,5.17,1.03,1.2,1.85,2.5,2.5,3.92l5.5-2.45c-.87-2.01-2.01-3.87-3.54-5.5-4.3-4.68-10.73-6.59-17.1-6.59h-.33c-6.37,0-12.8,1.91-17.1,6.59-4.57,5.01-5.99,11.93-5.99,18.73s1.42,13.72,5.99,18.73c4.3,4.68,10.73,6.59,17.1,6.59Z"/>
    <polygon points="1161.87 39.99 1184.96 39.99 1184.96 61.77 1190.95 61.77 1190.95 12.76 1184.96 12.76 1184.96 34.54 1161.87 34.54 1161.87 12.76 1155.88 12.76 1155.88 61.77 1161.87 61.77 1161.87 39.99"/>
    <polygon points="1208.06 61.77 1214.05 61.77 1214.05 18.21 1228.32 18.21 1228.32 12.76 1193.79 12.76 1193.79 18.21 1208.06 18.21 1208.06 61.77"/>
    <polygon points="976.33 78.85 965.87 96.44 955.58 78.85 948.66 78.85 962.39 102.32 947.3 127.87 953.89 127.87 965.71 107.93 977.36 127.87 984.28 127.87 969.19 102.05 982.91 78.85 976.33 78.85"/>
    <rect x="990.83" y="78.85" width="5.99" height="49.01"/>
    <path d="M1018.74,79.51h-.11c-4.03,0-8,1.69-10.4,4.96-.98,1.31-1.69,2.78-2.23,4.3l5.61,1.96c.27-.76.6-1.52,1.03-2.23,1.25-2.12,3.54-3.54,5.99-3.54h.11c2.45,0,4.74,1.42,5.99,3.54,1.8,3,2.07,6.53,2.07,10.02v2.12c-2.34-1.47-5.23-2.12-8.06-2.12h-.11c-3.87,0-7.79,1.09-10.4,3.92-2.78,3-3.65,7.08-3.65,11.16s.87,8.17,3.65,11.16c2.61,2.83,6.54,3.92,10.4,3.92h.11c2.83,0,5.72-.65,8.06-2.12v1.31h5.99v-29.35c0-4.95-.71-10.02-3.65-14.05-2.4-3.27-6.37-4.96-10.4-4.96ZM1024.73,120.73c-1.42,1.74-3.71,2.5-5.99,2.5h-.11c-2.29,0-4.57-.76-5.99-2.5-1.63-1.96-2.07-4.57-2.07-7.13s.44-5.17,2.07-7.13c1.42-1.74,3.71-2.51,5.99-2.51h.11c2.29,0,4.57.76,5.99,2.51,1.63,1.96,2.07,4.57,2.07,7.13s-.44,5.17-2.07,7.13Z"/>
    <path d="M1056.16,79.51h-.22c-4.74,0-9.21,2.4-11.77,6.37-3.43,5.34-4.14,11.87-4.14,18.24s.71,12.85,4.14,18.19c2.56,3.98,7.03,6.37,11.77,6.37h.22c4.74,0,9.2-2.4,11.76-6.37,3.43-5.34,4.14-11.82,4.14-18.19s-.71-12.91-4.14-18.24c-2.56-3.98-7.02-6.37-11.76-6.37ZM1063.51,118.28c-1.47,2.83-4.19,4.95-7.35,4.95h-.22c-3.16,0-5.88-2.12-7.35-4.95-2.23-4.36-2.56-9.31-2.56-14.16s.33-9.86,2.56-14.21c1.47-2.83,4.2-4.96,7.35-4.96h.22c3.16,0,5.88,2.12,7.35,4.96,2.23,4.36,2.56,9.37,2.56,14.21s-.33,9.8-2.56,14.16Z"/>
    <polygon points="1109.15 127.87 1115.14 127.87 1115.14 78.85 1109.15 78.85 1109.15 100.64 1086.06 100.64 1086.06 78.85 1080.07 78.85 1080.07 127.87 1086.06 127.87 1086.06 106.08 1109.15 106.08 1109.15 127.87"/>
    <path d="M1151.14,122.31c3.43-5.34,4.14-11.82,4.14-18.19s-.71-12.91-4.14-18.24c-2.56-3.98-7.03-6.37-11.76-6.37h-.22c-4.74,0-9.2,2.4-11.76,6.37-3.43,5.34-4.14,11.87-4.14,18.24s.71,12.85,4.14,18.19c2.56,3.98,7.02,6.37,11.76,6.37h.22c4.74,0,9.2-2.4,11.76-6.37ZM1139.38,123.24h-.22c-3.16,0-5.88-2.12-7.35-4.95-2.23-4.36-2.56-9.31-2.56-14.16s.33-9.86,2.56-14.21c1.47-2.83,4.19-4.96,7.35-4.96h.22c3.16,0,5.88,2.12,7.35,4.96,2.23,4.36,2.56,9.37,2.56,14.21s-.33,9.8-2.56,14.16c-1.47,2.83-4.19,4.95-7.35,4.95Z"/>
    <path d="M1183.99,97.8v30.06h5.99v-30.06c0-4.74-.55-9.58-3.16-13.56-1.96-3-5.34-4.74-8.93-4.74h-.16c-3.32,0-6.64.93-9.2,2.94v-2.12h-5.99v47.54h5.99v-30.06c0-3.38.44-6.81,2.4-9.53,1.58-2.18,4.14-3.32,6.81-3.32h.16c2.02,0,3.65,1.47,4.52,3.32,1.42,2.94,1.58,6.26,1.58,9.53Z"/>
    <path d="M1220.62,106.08h17.26v1.25c0,4.36-1.25,8.77-4.46,11.76-3.38,3.1-8.01,4.14-12.64,4.14h-.33c-4.79,0-9.53-1.58-12.64-5.17-3.43-4.03-4.46-9.42-4.46-14.7s1.03-10.67,4.46-14.7c3.11-3.6,7.84-5.17,12.64-5.17h.33c4.79,0,9.53,1.58,12.64,5.17,1.03,1.2,1.85,2.5,2.5,3.92l5.5-2.45c-.87-2.01-2.01-3.87-3.54-5.5-4.3-4.68-10.73-6.59-17.1-6.59h-.33c-6.37,0-12.8,1.91-17.1,6.59-4.57,5.01-5.99,11.93-5.99,18.73s1.42,13.72,5.99,18.73c4.3,4.68,10.73,6.59,17.1,6.59h.33c6.26,0,12.64-1.42,17.1-5.72v4.9h5.99v-27.23h-23.25v5.45Z"/>
    <path d="M1276.23,114.69c0-5.06-2.29-10.02-6.64-12.53l-6.86-1.85c-2.61-1.52-4.52-4.14-4.52-7.13,0-2.12.11-4.36,1.25-6.21.82-1.31,2.23-2.01,3.76-2.01h.11c2.72,0,4.25,2.4,4.74,4.9l5.88-1.14c-.38-2.07-1.2-4.03-2.51-5.66-1.96-2.4-5.01-3.54-8.11-3.54h-.11c-3.16,0-6.32.87-8.28,3.32-2.29,2.83-2.72,6.7-2.72,10.35,0,5.23,2.83,9.97,7.35,12.58l6.86,1.85c2.45,1.42,3.81,4.19,3.81,7.08,0,2.29-.27,4.69-1.69,6.48-1.25,1.52-3.27,2.07-5.23,2.07h-.11c-1.96,0-3.92-.71-5.12-2.23-.82-.98-1.25-2.18-1.53-3.43l-5.88,1.14c.44,2.34,1.36,4.57,3,6.32,2.4,2.61,5.99,3.65,9.53,3.65h.11c3.59,0,7.3-.82,9.75-3.43,2.56-2.78,3.16-6.75,3.16-10.57Z"/>
    <polygon points="1289.16 106.08 1312.25 106.08 1312.25 127.87 1318.24 127.87 1318.24 78.85 1312.25 78.85 1312.25 100.64 1289.16 100.64 1289.16 78.85 1283.17 78.85 1283.17 127.87 1289.16 127.87 1289.16 106.08"/>
    <path d="M1348.72,127.87h5.99v-47.54h-5.99v30.06c0,3.32-.33,6.7-2.01,9.53-1.2,2.02-3.32,3.32-5.66,3.32h-.11c-2.34,0-4.46-1.31-5.66-3.32-1.69-2.83-2.01-6.21-2.01-9.53v-30.06h-5.99v30.06c0,4.79.65,9.69,3.54,13.56,2.34,3.16,6.21,4.74,10.13,4.74h.11c2.78,0,5.5-.82,7.68-2.45v1.63Z"/>
    <path d="M1409.08,107.61c1.96-.6,3.76-1.58,5.28-2.94,3.05-2.72,4.3-6.81,4.3-10.95s-1.25-8.28-4.3-11c-3.27-2.94-7.79-3.87-12.2-3.87h-14.76v49.01h5.99v-19.33h9.64l10.13,19.33h7.02l-11.11-20.26ZM1402.16,103.09h-8.77v-18.79h8.77c2.83,0,5.66.6,7.79,2.45,1.96,1.74,2.72,4.36,2.72,6.97s-.76,5.17-2.72,6.92c-2.12,1.85-4.96,2.45-7.79,2.45Z"/>
    <polygon points="1453.81 122.42 1432.35 122.42 1432.35 106.08 1450.81 106.08 1450.81 100.64 1432.35 100.64 1432.35 84.3 1453.81 84.3 1453.81 78.85 1426.36 78.85 1426.36 127.87 1453.81 127.87 1453.81 122.42"/>
    <path d="M1493.96,121.49c4.57-4.79,6.04-11.49,6.04-18.13s-1.47-13.34-6.04-18.13c-4.41-4.63-10.84-6.37-17.26-6.37h-15.57v49.01h15.57c6.43,0,12.85-1.74,17.26-6.37ZM1467.12,84.3h9.58c4.79,0,9.59,1.42,12.8,4.95,3.43,3.76,4.52,8.99,4.52,14.1s-1.09,10.35-4.52,14.1c-3.21,3.54-8.01,4.96-12.8,4.96h-9.58v-38.12Z"/>
    <path d="M1522.52,128.68h.22c4.57,0,8.99-1.8,11.76-5.39,1.14-1.52,2.01-3.21,2.61-4.96l-5.61-1.96c-.38,1.03-.82,1.96-1.41,2.89-1.64,2.51-4.41,3.98-7.35,3.98h-.22c-3.16,0-5.88-2.12-7.35-4.95-1.85-3.54-2.34-7.46-2.5-11.44h25.98v-2.72c0-6.37-.71-12.91-4.14-18.24-2.56-3.98-7.03-6.37-11.76-6.37h-.22c-4.74,0-9.2,2.4-11.76,6.37-3.43,5.34-4.14,11.87-4.14,18.24s.71,12.85,4.14,18.19c2.56,3.98,7.02,6.37,11.76,6.37ZM1515.17,89.91c1.47-2.83,4.19-4.96,7.35-4.96h.22c3.16,0,5.88,2.12,7.35,4.96,1.85,3.54,2.34,7.51,2.5,11.49h-19.93c.16-3.98.65-7.95,2.5-11.49Z"/>
    <path d="M1562.43,102.16l-6.86-1.85c-2.61-1.52-4.52-4.14-4.52-7.13,0-2.12.11-4.36,1.25-6.21.82-1.31,2.23-2.01,3.76-2.01h.11c2.72,0,4.25,2.4,4.74,4.9l5.88-1.14c-.38-2.07-1.2-4.03-2.51-5.66-1.96-2.4-5.01-3.54-8.11-3.54h-.11c-3.16,0-6.32.87-8.28,3.32-2.29,2.83-2.72,6.7-2.72,10.35,0,5.23,2.83,9.97,7.35,12.58l6.86,1.85c2.45,1.42,3.81,4.19,3.81,7.08,0,2.29-.27,4.69-1.69,6.48-1.25,1.52-3.27,2.07-5.23,2.07h-.11c-1.96,0-3.92-.71-5.12-2.23-.82-.98-1.25-2.18-1.52-3.43l-5.88,1.14c.44,2.34,1.36,4.57,3,6.32,2.4,2.61,5.99,3.65,9.53,3.65h.11c3.6,0,7.3-.82,9.75-3.43,2.56-2.78,3.16-6.75,3.16-10.57,0-5.06-2.29-10.02-6.64-12.53Z"/>
    <rect x="1576.39" y="78.85" width="5.99" height="49.01"/>
    <path d="M1651.08,84.24c-1.96-3-5.34-4.74-8.93-4.74h-.16c-3.32,0-6.64.93-9.2,2.94v-2.12h-5.99v47.54h5.99v-30.06c0-3.38.44-6.81,2.4-9.53,1.58-2.18,4.14-3.32,6.81-3.32h.16c2.02,0,3.65,1.47,4.52,3.32,1.42,2.94,1.58,6.26,1.58,9.53v30.06h5.99v-30.06c0-4.74-.55-9.58-3.16-13.56Z"/>
    <path d="M912.53,144.95l-19.28,49.01h5.93l4.25-10.84h19.93l4.25,10.84h6.42l-19.22-49.01h-2.29ZM905.61,177.67l7.79-19.88,7.79,19.88h-15.57Z"/>
    <polygon points="946.42 144.95 940.43 144.95 940.43 193.96 967.88 193.96 967.88 188.51 946.42 188.51 946.42 144.95"/>
    <polygon points="981 144.95 975.01 144.95 975.01 193.96 1002.45 193.96 1002.45 188.51 981 188.51 981 144.95"/>
    <path d="M1059.82,170.76c3.05-2.72,4.3-6.81,4.3-10.95s-1.25-8.28-4.3-11c-3.27-2.94-7.79-3.87-12.2-3.87h-14.76v49.01h5.99v-19.33h9.64l10.13,19.33h7.03l-11.11-20.26c1.96-.6,3.76-1.58,5.28-2.94ZM1047.62,169.18h-8.77v-18.79h8.77c2.83,0,5.66.6,7.79,2.45,1.96,1.74,2.72,4.36,2.72,6.97s-.76,5.17-2.72,6.92c-2.12,1.85-4.95,2.45-7.79,2.45Z"/>
    <rect x="1072.2" y="144.95" width="5.99" height="49.01"/>
    <path d="M1110.18,172.18h17.26v1.25c0,4.36-1.25,8.77-4.47,11.76-3.38,3.1-8.01,4.14-12.63,4.14h-.33c-4.79,0-9.53-1.58-12.64-5.17-3.43-4.03-4.46-9.42-4.46-14.7s1.03-10.67,4.46-14.7c3.1-3.6,7.84-5.17,12.64-5.17h.33c4.79,0,9.53,1.58,12.63,5.17,1.03,1.2,1.85,2.5,2.5,3.92l5.5-2.45c-.87-2.01-2.02-3.87-3.54-5.5-4.3-4.68-10.73-6.59-17.1-6.59h-.33c-6.37,0-12.8,1.91-17.1,6.59-4.57,5.01-5.99,11.93-5.99,18.73s1.42,13.72,5.99,18.73c4.3,4.68,10.73,6.59,17.1,6.59h.33c6.26,0,12.63-1.42,17.1-5.72v4.9h5.99v-27.23h-23.25v5.45Z"/>
    <polygon points="1172.17 166.73 1149.08 166.73 1149.08 144.95 1143.09 144.95 1143.09 193.96 1149.08 193.96 1149.08 172.18 1172.17 172.18 1172.17 193.96 1178.16 193.96 1178.16 144.95 1172.17 144.95 1172.17 166.73"/>
    <polygon points="1215.53 144.95 1181 144.95 1181 150.39 1195.27 150.39 1195.27 193.96 1201.26 193.96 1201.26 150.39 1215.53 150.39 1215.53 144.95"/>
    <path d="M1233.21,168.25l-6.86-1.85c-2.61-1.52-4.52-4.14-4.52-7.13,0-2.12.11-4.36,1.25-6.21.82-1.31,2.23-2.01,3.76-2.01h.11c2.72,0,4.25,2.4,4.74,4.9l5.88-1.14c-.38-2.07-1.2-4.03-2.51-5.66-1.96-2.4-5.01-3.54-8.11-3.54h-.11c-3.16,0-6.32.87-8.28,3.32-2.29,2.83-2.72,6.7-2.72,10.35,0,5.23,2.83,9.97,7.35,12.58l6.86,1.85c2.45,1.42,3.81,4.19,3.81,7.08,0,2.29-.27,4.69-1.69,6.48-1.25,1.52-3.27,2.07-5.23,2.07h-.11c-1.96,0-3.92-.71-5.12-2.23-.82-.98-1.25-2.18-1.53-3.43l-5.88,1.14c.44,2.34,1.36,4.57,3,6.32,2.4,2.61,5.99,3.65,9.53,3.65h.11c3.59,0,7.3-.82,9.75-3.43,2.56-2.78,3.16-6.75,3.16-10.57,0-5.06-2.29-10.02-6.64-12.53Z"/>
    <path d="M1297.22,170.76c3.05-2.72,4.3-6.81,4.3-10.95s-1.25-8.28-4.3-11c-3.27-2.94-7.79-3.87-12.2-3.87h-14.76v49.01h5.99v-19.33h9.64l10.13,19.33h7.03l-11.11-20.26c1.96-.6,3.76-1.58,5.28-2.94ZM1285.02,169.18h-8.77v-18.79h8.77c2.83,0,5.66.6,7.79,2.45,1.96,1.74,2.72,4.36,2.72,6.97s-.76,5.17-2.72,6.92c-2.12,1.85-4.95,2.45-7.79,2.45Z"/>
    <path d="M1323.03,145.6h-.22c-4.74,0-9.2,2.4-11.76,6.37-3.43,5.34-4.14,11.87-4.14,18.24s.71,12.85,4.14,18.19c2.56,3.98,7.02,6.37,11.76,6.37h.22c4.57,0,8.98-1.8,11.76-5.39,1.14-1.52,2.01-3.21,2.61-4.96l-5.61-1.96c-.38,1.03-.82,1.96-1.42,2.89-1.63,2.51-4.41,3.98-7.35,3.98h-.22c-3.16,0-5.88-2.12-7.35-4.95-1.85-3.54-2.34-7.46-2.51-11.44h25.98v-2.72c0-6.37-.71-12.91-4.14-18.24-2.56-3.98-7.03-6.37-11.76-6.37ZM1312.96,167.49c.16-3.98.65-7.95,2.51-11.49,1.47-2.83,4.19-4.96,7.35-4.96h.22c3.16,0,5.88,2.12,7.35,4.96,1.85,3.54,2.34,7.51,2.51,11.49h-19.93Z"/>
    <path d="M1362.73,168.25l-6.86-1.85c-2.61-1.52-4.52-4.14-4.52-7.13,0-2.12.11-4.36,1.25-6.21.82-1.31,2.23-2.01,3.76-2.01h.11c2.72,0,4.25,2.4,4.74,4.9l5.88-1.14c-.38-2.07-1.2-4.03-2.5-5.66-1.96-2.4-5.01-3.54-8.12-3.54h-.11c-3.16,0-6.32.87-8.28,3.32-2.29,2.83-2.72,6.7-2.72,10.35,0,5.23,2.83,9.97,7.35,12.58l6.86,1.85c2.45,1.42,3.81,4.19,3.81,7.08,0,2.29-.27,4.69-1.69,6.48-1.25,1.52-3.27,2.07-5.23,2.07h-.11c-1.96,0-3.92-.71-5.12-2.23-.82-.98-1.25-2.18-1.52-3.43l-5.88,1.14c.43,2.34,1.36,4.57,3,6.32,2.4,2.61,5.99,3.65,9.53,3.65h.11c3.6,0,7.3-.82,9.75-3.43,2.56-2.78,3.16-6.75,3.16-10.57,0-5.06-2.29-10.02-6.64-12.53Z"/>
    <path d="M1390.85,145.6h-.22c-4.74,0-9.2,2.4-11.76,6.37-3.43,5.34-4.14,11.87-4.14,18.24s.71,12.85,4.14,18.19c2.56,3.98,7.02,6.37,11.76,6.37h.22c4.57,0,8.99-1.8,11.76-5.39,1.14-1.52,2.01-3.21,2.61-4.96l-5.61-1.96c-.38,1.03-.82,1.96-1.41,2.89-1.64,2.51-4.41,3.98-7.35,3.98h-.22c-3.16,0-5.88-2.12-7.35-4.95-1.85-3.54-2.34-7.46-2.5-11.44h25.98v-2.72c0-6.37-.71-12.91-4.14-18.24-2.56-3.98-7.03-6.37-11.76-6.37ZM1380.78,167.49c.16-3.98.65-7.95,2.5-11.49,1.47-2.83,4.19-4.96,7.35-4.96h.22c3.16,0,5.88,2.12,7.35,4.96,1.85,3.54,2.34,7.51,2.5,11.49h-19.93Z"/>
    <path d="M1426.63,145.6c-2.61,0-5.12.98-7.08,2.67v-1.85h-5.99v47.54h5.99v-27.34c0-3.92.22-7.95,1.85-11.55.98-2.23,2.83-4.03,5.23-4.03h.16c1.14,0,2.12.44,3,1.09l3-4.79c-1.8-1.14-3.81-1.74-5.99-1.74h-.16Z"/>
    <polygon points="1452.4 177.79 1442.82 146.42 1436.55 146.42 1451.04 193.96 1453.33 193.96 1467.81 146.42 1461.93 146.42 1452.4 177.79"/>
    <path d="M1486.3,145.6h-.22c-4.74,0-9.2,2.4-11.76,6.37-3.43,5.34-4.14,11.87-4.14,18.24s.71,12.85,4.14,18.19c2.56,3.98,7.03,6.37,11.76,6.37h.22c4.57,0,8.98-1.8,11.76-5.39,1.14-1.52,2.02-3.21,2.61-4.96l-5.61-1.96c-.38,1.03-.82,1.96-1.42,2.89-1.63,2.51-4.41,3.98-7.35,3.98h-.22c-3.16,0-5.88-2.12-7.35-4.95-1.85-3.54-2.34-7.46-2.51-11.44h25.98v-2.72c0-6.37-.71-12.91-4.14-18.24-2.56-3.98-7.02-6.37-11.76-6.37ZM1476.22,167.49c.16-3.98.65-7.95,2.51-11.49,1.47-2.83,4.19-4.96,7.35-4.96h.22c3.16,0,5.88,2.12,7.35,4.96,1.85,3.54,2.34,7.51,2.51,11.49h-19.93Z"/>
    <path d="M1525.35,144.95h-15.57v49.01h15.57c6.43,0,12.85-1.74,17.26-6.37,4.57-4.79,6.04-11.49,6.04-18.13s-1.47-13.34-6.04-18.13c-4.41-4.63-10.84-6.37-17.26-6.37ZM1538.15,183.56c-3.21,3.54-8.01,4.96-12.8,4.96h-9.58v-38.12h9.58c4.79,0,9.58,1.42,12.8,4.95,3.43,3.76,4.52,8.99,4.52,14.1s-1.09,10.35-4.52,14.1Z"/>
    <path d="M1557.73,185.95c-1.09,0-2.18.27-2.94,1.03-.76.76-1.03,1.85-1.03,2.94s.27,2.23,1.03,3c.76.76,1.85,1.03,2.94,1.03s2.18-.27,2.94-1.03,1.04-1.91,1.04-3-.27-2.18-1.04-2.94c-.76-.76-1.85-1.03-2.94-1.03Z"/>
    <path d="M936.83,84.52c-4.3-4.68-10.73-6.59-17.1-6.59h-.33c-6.37,0-12.8,1.91-17.1,6.59-4.57,5.01-5.99,11.93-5.99,18.73s1.42,13.72,5.99,18.74c4.3,4.68,10.73,6.59,17.1,6.59h.33c6.37,0,12.8-1.91,17.1-6.59,4.57-5.01,5.99-11.93,5.99-18.74s-1.41-13.72-5.99-18.73ZM932.49,118.1c-3.13,3.63-7.91,5.22-12.75,5.22h-.33c-4.84,0-9.62-1.59-12.75-5.22-3.46-4.07-4.51-9.51-4.51-14.84s1.04-10.77,4.51-14.84c3.13-3.62,7.91-5.22,12.75-5.22h.33c4.84,0,9.62,1.59,12.75,5.22,3.46,4.07,4.51,9.51,4.51,14.84s-1.04,10.77-4.51,14.84Z"/>
    <path d="M919.26,92.11h.13c1.54,0,3.03,1.01,3.88,2.65.44.82.77,1.77,1.01,2.9l.1.48,4.36-.98-.1-.47c-.39-1.8-1.04-3.41-1.95-4.79-1.57-2.44-4.37-3.96-7.3-3.96h-.13c-2.98,0-5.71,1.48-7.3,3.96-2.22,3.45-2.5,7.67-2.5,10.95s.28,7.47,2.5,10.92c1.57,2.44,4.37,3.96,7.3,3.96h.13c2.93,0,5.73-1.51,7.3-3.96.91-1.37,1.56-2.98,1.95-4.79l.1-.47-4.36-.98-.1.48c-.25,1.15-.57,2.08-1.01,2.91-.85,1.63-2.33,2.64-3.88,2.64h-.13c-1.55,0-3.03-1.01-3.88-2.63-1.27-2.48-1.45-5.35-1.45-8.08s.17-5.63,1.44-8.1c.85-1.63,2.33-2.64,3.88-2.64Z"/>
  </g>
</svg>